<?xml version="1.0" ?><svg height="24px" id="Layer_1" style="enable-background:new 0 0 24 24;" version="1.1" viewBox="0 0 24 24" width="24px" xml:space="preserve" xmlns="http://www.w3.org/2000/svg" xmlns:xlink="http://www.w3.org/1999/xlink"><path d="M20.9999962,6v12L8.9075356,18.0000153L3.657526,12l5.2500095-6H20.9999962 M20.9999962,4H8.9075356  C8.3308067,4,7.7821579,4.2489624,7.4023857,4.6829834l-5.8262005,6.6585083c-0.3298893,0.3770294-0.3298893,0.9399872,0,1.3170166  l5.8262005,6.6585083C7.7821579,19.7510376,8.3308067,20,8.9075356,20h12.0924606c1.1045685,0,2-0.8954315,2-2V6  C22.9999962,4.8954315,22.1045647,4,20.9999962,4L20.9999962,4z"/><rect height="2" transform="matrix(0.7071068 -0.7071068 0.7071068 0.7071068 -4.2132034 13.8284283)" width="10.4852819" x="9.3431454" y="11"/><rect height="10.4852819" transform="matrix(0.7071068 -0.7071068 0.7071068 0.7071068 -4.2132034 13.8284254)" width="2" x="13.5857859" y="6.757359"/></svg>